<svg width="262" height="262" viewBox="0 0 262 262" fill="none" xmlns="http://www.w3.org/2000/svg">
<rect x="0.408203" y="0.327393" width="260.714" height="260.714" fill="url(#paint0_linear_108_3)"/>
<path d="M102.922 76.4999L102.609 89.7499L93.2966 90.1249L90.9216 119.75L77.7341 120.437L77.7966 90.8124L68.4841 91.3124L68.8591 76.5624L102.922 76.4999ZM142.015 99.1249C142.015 101.021 141.797 102.854 141.359 104.625C140.922 106.375 140.286 108.021 139.453 109.562C138.64 111.104 137.64 112.521 136.453 113.812C135.286 115.083 133.963 116.177 132.484 117.094C131.026 118.01 129.432 118.729 127.703 119.25C125.974 119.75 124.14 120 122.203 120C120.328 120 118.536 119.76 116.828 119.281C115.14 118.802 113.557 118.135 112.078 117.281C110.599 116.406 109.255 115.365 108.047 114.156C106.859 112.927 105.838 111.573 104.984 110.094C104.151 108.594 103.495 106.99 103.015 105.281C102.557 103.573 102.328 101.792 102.328 99.9374C102.328 98.1249 102.547 96.3541 102.984 94.6249C103.422 92.8749 104.047 91.2291 104.859 89.6874C105.692 88.1458 106.692 86.7291 107.859 85.4374C109.026 84.1458 110.328 83.0312 111.765 82.0937C113.224 81.1562 114.797 80.427 116.484 79.9062C118.172 79.3854 119.953 79.1249 121.828 79.1249C124.849 79.1249 127.599 79.5937 130.078 80.5312C132.578 81.4687 134.703 82.8124 136.453 84.5624C138.224 86.2916 139.588 88.3958 140.547 90.8749C141.526 93.3333 142.015 96.0833 142.015 99.1249ZM128.14 99.9374C128.14 99.0416 128.005 98.177 127.734 97.3437C127.484 96.4895 127.109 95.7395 126.609 95.0937C126.109 94.427 125.484 93.8958 124.734 93.4999C124.005 93.0833 123.161 92.8749 122.203 92.8749C121.224 92.8749 120.349 93.052 119.578 93.4062C118.807 93.7604 118.14 94.2499 117.578 94.8749C117.036 95.4791 116.62 96.1979 116.328 97.0312C116.036 97.8437 115.89 98.7083 115.89 99.6249C115.89 100.5 116.015 101.375 116.265 102.25C116.515 103.125 116.89 103.917 117.39 104.625C117.89 105.333 118.505 105.906 119.234 106.344C119.984 106.781 120.849 107 121.828 107C122.807 107 123.682 106.812 124.453 106.437C125.245 106.042 125.911 105.521 126.453 104.875C126.995 104.208 127.411 103.448 127.703 102.594C127.995 101.74 128.14 100.854 128.14 99.9374ZM180.609 91.1249C180.609 93.1458 180.307 94.9374 179.703 96.4999C179.099 98.0624 178.265 99.427 177.203 100.594C176.161 101.76 174.932 102.75 173.515 103.562C172.099 104.375 170.578 105.042 168.953 105.562C167.349 106.062 165.682 106.437 163.953 106.687C162.224 106.917 160.526 107.042 158.859 107.062V121.625H144.297C144.297 116.854 144.307 112.104 144.328 107.375C144.349 102.646 144.38 97.8749 144.422 93.0624C144.463 90.5208 144.474 87.9791 144.453 85.4374C144.432 82.8958 144.484 80.3333 144.609 77.7499C147.276 76.9583 149.942 76.3645 152.609 75.9687C155.276 75.5729 158.026 75.3749 160.859 75.3749C162.463 75.3749 164.067 75.5104 165.672 75.7812C167.276 76.0312 168.807 76.4374 170.265 76.9999C171.745 77.5624 173.109 78.2708 174.359 79.1249C175.63 79.9583 176.724 80.9583 177.64 82.1249C178.557 83.2916 179.276 84.6249 179.797 86.1249C180.338 87.6041 180.609 89.2708 180.609 91.1249ZM166.734 92.1874C166.734 90.8333 166.317 89.7812 165.484 89.0312C164.672 88.2604 163.609 87.8749 162.297 87.8749C161.859 87.8749 161.401 87.9166 160.922 87.9999C160.463 88.0624 160.026 88.1458 159.609 88.2499L159.234 97.3749C159.526 97.4166 159.807 97.4374 160.078 97.4374C160.349 97.4374 160.63 97.4374 160.922 97.4374C161.672 97.4374 162.39 97.3124 163.078 97.0624C163.786 96.8124 164.411 96.4583 164.953 95.9999C165.495 95.5208 165.922 94.9687 166.234 94.3437C166.567 93.6979 166.734 92.9791 166.734 92.1874ZM101.297 155.125C101.297 157.146 100.995 158.937 100.39 160.5C99.7862 162.062 98.9529 163.427 97.8904 164.594C96.8487 165.76 95.6195 166.75 94.2029 167.562C92.7862 168.375 91.2654 169.042 89.6404 169.562C88.0362 170.062 86.3695 170.437 84.6404 170.687C82.9112 170.917 81.2133 171.042 79.5466 171.062V185.625H64.9841C64.9841 180.854 64.9945 176.104 65.0154 171.375C65.0362 166.646 65.0675 161.875 65.1091 157.062C65.1508 154.521 65.1612 151.979 65.1404 149.437C65.1195 146.896 65.1716 144.333 65.2966 141.75C67.9633 140.958 70.63 140.365 73.2966 139.969C75.9633 139.573 78.7133 139.375 81.5466 139.375C83.1508 139.375 84.755 139.51 86.3591 139.781C87.9633 140.031 89.4945 140.437 90.9529 141C92.432 141.562 93.7966 142.271 95.0466 143.125C96.3175 143.958 97.4112 144.958 98.3279 146.125C99.2445 147.292 99.9633 148.625 100.484 150.125C101.026 151.604 101.297 153.271 101.297 155.125ZM87.4216 156.187C87.4216 154.833 87.005 153.781 86.1716 153.031C85.3591 152.26 84.2966 151.875 82.9841 151.875C82.5466 151.875 82.0883 151.917 81.6091 152C81.1508 152.062 80.7133 152.146 80.2966 152.25L79.9216 161.375C80.2133 161.417 80.4945 161.437 80.7654 161.437C81.0362 161.437 81.3175 161.437 81.6091 161.437C82.3591 161.437 83.0779 161.312 83.7654 161.062C84.4737 160.812 85.0987 160.458 85.6404 160C86.182 159.521 86.6091 158.969 86.9216 158.344C87.255 157.698 87.4216 156.979 87.4216 156.187ZM141.64 163.125C141.64 165.021 141.422 166.854 140.984 168.625C140.547 170.375 139.911 172.021 139.078 173.562C138.265 175.104 137.265 176.521 136.078 177.812C134.911 179.083 133.588 180.177 132.109 181.094C130.651 182.01 129.057 182.729 127.328 183.25C125.599 183.75 123.765 184 121.828 184C119.953 184 118.161 183.76 116.453 183.281C114.765 182.802 113.182 182.135 111.703 181.281C110.224 180.406 108.88 179.365 107.672 178.156C106.484 176.927 105.463 175.573 104.609 174.094C103.776 172.594 103.12 170.99 102.64 169.281C102.182 167.573 101.953 165.792 101.953 163.937C101.953 162.125 102.172 160.354 102.609 158.625C103.047 156.875 103.672 155.229 104.484 153.687C105.317 152.146 106.317 150.729 107.484 149.437C108.651 148.146 109.953 147.031 111.39 146.094C112.849 145.156 114.422 144.427 116.109 143.906C117.797 143.385 119.578 143.125 121.453 143.125C124.474 143.125 127.224 143.594 129.703 144.531C132.203 145.469 134.328 146.812 136.078 148.562C137.849 150.292 139.213 152.396 140.172 154.875C141.151 157.333 141.64 160.083 141.64 163.125ZM127.765 163.937C127.765 163.042 127.63 162.177 127.359 161.344C127.109 160.49 126.734 159.74 126.234 159.094C125.734 158.427 125.109 157.896 124.359 157.5C123.63 157.083 122.786 156.875 121.828 156.875C120.849 156.875 119.974 157.052 119.203 157.406C118.432 157.76 117.765 158.25 117.203 158.875C116.661 159.479 116.245 160.198 115.953 161.031C115.661 161.844 115.515 162.708 115.515 163.625C115.515 164.5 115.64 165.375 115.89 166.25C116.14 167.125 116.515 167.917 117.015 168.625C117.515 169.333 118.13 169.906 118.859 170.344C119.609 170.781 120.474 171 121.453 171C122.432 171 123.307 170.812 124.078 170.437C124.87 170.042 125.536 169.521 126.078 168.875C126.62 168.208 127.036 167.448 127.328 166.594C127.62 165.74 127.765 164.854 127.765 163.937ZM180.234 155.125C180.234 157.146 179.932 158.937 179.328 160.5C178.724 162.062 177.89 163.427 176.828 164.594C175.786 165.76 174.557 166.75 173.14 167.562C171.724 168.375 170.203 169.042 168.578 169.562C166.974 170.062 165.307 170.437 163.578 170.687C161.849 170.917 160.151 171.042 158.484 171.062V185.625H143.922C143.922 180.854 143.932 176.104 143.953 171.375C143.974 166.646 144.005 161.875 144.047 157.062C144.088 154.521 144.099 151.979 144.078 149.437C144.057 146.896 144.109 144.333 144.234 141.75C146.901 140.958 149.567 140.365 152.234 139.969C154.901 139.573 157.651 139.375 160.484 139.375C162.088 139.375 163.692 139.51 165.297 139.781C166.901 140.031 168.432 140.437 169.89 141C171.37 141.562 172.734 142.271 173.984 143.125C175.255 143.958 176.349 144.958 177.265 146.125C178.182 147.292 178.901 148.625 179.422 150.125C179.963 151.604 180.234 153.271 180.234 155.125ZM166.359 156.187C166.359 154.833 165.942 153.781 165.109 153.031C164.297 152.26 163.234 151.875 161.922 151.875C161.484 151.875 161.026 151.917 160.547 152C160.088 152.062 159.651 152.146 159.234 152.25L158.859 161.375C159.151 161.417 159.432 161.437 159.703 161.437C159.974 161.437 160.255 161.437 160.547 161.437C161.297 161.437 162.015 161.312 162.703 161.062C163.411 160.812 164.036 160.458 164.578 160C165.12 159.521 165.547 158.969 165.859 158.344C166.192 157.698 166.359 156.979 166.359 156.187ZM197.265 138.75L194.703 171.625H183.14L181.953 138.75H197.265ZM195.203 181.25C195.203 182.167 195.026 183.021 194.672 183.812C194.317 184.604 193.838 185.292 193.234 185.875C192.651 186.479 191.963 186.948 191.172 187.281C190.38 187.635 189.536 187.812 188.64 187.812C187.724 187.812 186.87 187.635 186.078 187.281C185.286 186.948 184.588 186.479 183.984 185.875C183.401 185.292 182.932 184.604 182.578 183.812C182.245 183.021 182.078 182.167 182.078 181.25C182.078 180.354 182.245 179.5 182.578 178.687C182.932 177.875 183.401 177.177 183.984 176.594C184.588 175.99 185.286 175.51 186.078 175.156C186.87 174.802 187.724 174.625 188.64 174.625C189.536 174.625 190.38 174.802 191.172 175.156C191.963 175.51 192.651 175.99 193.234 176.594C193.838 177.177 194.317 177.875 194.672 178.687C195.026 179.5 195.203 180.354 195.203 181.25Z" fill="white"/>
<defs>
<linearGradient id="paint0_linear_108_3" x1="0.408203" y1="0.327393" x2="261.122" y2="261.042" gradientUnits="userSpaceOnUse">
<stop stop-color="#24008B"/>
<stop offset="1" stop-color="#80008B"/>
</linearGradient>
</defs>
</svg>
