<svg width="134" height="113" viewBox="0 0 134 113" fill="none" xmlns="http://www.w3.org/2000/svg">
<path d="M38.9216 1.49994L38.6091 14.7499L29.2966 15.1249L26.9216 44.7499L13.7341 45.4374L13.7966 15.8124L4.48413 16.3124L4.85913 1.56244L38.9216 1.49994ZM78.0154 24.1249C78.0154 26.0208 77.7966 27.8541 77.3591 29.6249C76.9216 31.3749 76.2862 33.0208 75.4529 34.5624C74.6404 36.1041 73.6404 37.5208 72.4529 38.8124C71.2862 40.0833 69.9633 41.177 68.4841 42.0937C67.0258 43.0104 65.432 43.7291 63.7029 44.2499C61.9737 44.7499 60.1404 44.9999 58.2029 44.9999C56.3279 44.9999 54.5362 44.7604 52.8279 44.2812C51.1404 43.802 49.557 43.1354 48.0779 42.2812C46.5987 41.4062 45.255 40.3645 44.0466 39.1562C42.8591 37.927 41.8383 36.5729 40.9841 35.0937C40.1508 33.5937 39.4945 31.9895 39.0154 30.2812C38.557 28.5729 38.3279 26.7916 38.3279 24.9374C38.3279 23.1249 38.5466 21.3541 38.9841 19.6249C39.4216 17.8749 40.0466 16.2291 40.8591 14.6874C41.6925 13.1458 42.6925 11.7291 43.8591 10.4374C45.0258 9.14577 46.3279 8.03119 47.7654 7.09369C49.2237 6.15619 50.7966 5.42702 52.4841 4.90619C54.1716 4.38536 55.9529 4.12494 57.8279 4.12494C60.8487 4.12494 63.5987 4.59369 66.0779 5.53119C68.5779 6.46869 70.7029 7.81244 72.4529 9.56244C74.2237 11.2916 75.5883 13.3958 76.5466 15.8749C77.5258 18.3333 78.0154 21.0833 78.0154 24.1249ZM64.1404 24.9374C64.1404 24.0416 64.005 23.177 63.7341 22.3437C63.4841 21.4895 63.1091 20.7395 62.6091 20.0937C62.1091 19.427 61.4841 18.8958 60.7341 18.4999C60.005 18.0833 59.1612 17.8749 58.2029 17.8749C57.2237 17.8749 56.3487 18.052 55.5779 18.4062C54.807 18.7604 54.1404 19.2499 53.5779 19.8749C53.0362 20.4791 52.6195 21.1979 52.3279 22.0312C52.0362 22.8437 51.8904 23.7083 51.8904 24.6249C51.8904 25.4999 52.0154 26.3749 52.2654 27.2499C52.5154 28.1249 52.8904 28.9166 53.3904 29.6249C53.8904 30.3333 54.505 30.9062 55.2341 31.3437C55.9841 31.7812 56.8487 31.9999 57.8279 31.9999C58.807 31.9999 59.682 31.8124 60.4529 31.4374C61.2445 31.0416 61.9112 30.5208 62.4529 29.8749C62.9945 29.2083 63.4112 28.4479 63.7029 27.5937C63.9945 26.7395 64.1404 25.8541 64.1404 24.9374ZM116.609 16.1249C116.609 18.1458 116.307 19.9374 115.703 21.4999C115.099 23.0624 114.265 24.427 113.203 25.5937C112.161 26.7604 110.932 27.7499 109.515 28.5624C108.099 29.3749 106.578 30.0416 104.953 30.5624C103.349 31.0624 101.682 31.4374 99.9529 31.6874C98.2237 31.9166 96.5258 32.0416 94.8591 32.0624V46.6249H80.2966C80.2966 41.8541 80.307 37.1041 80.3279 32.3749C80.3487 27.6458 80.38 22.8749 80.4216 18.0624C80.4633 15.5208 80.4737 12.9791 80.4529 10.4374C80.432 7.89577 80.4841 5.33327 80.6091 2.74994C83.2758 1.95827 85.9425 1.36452 88.6091 0.968689C91.2758 0.572856 94.0258 0.374939 96.8591 0.374939C98.4633 0.374939 100.067 0.510356 101.672 0.781189C103.276 1.03119 104.807 1.43744 106.265 1.99994C107.745 2.56244 109.109 3.27077 110.359 4.12494C111.63 4.95827 112.724 5.95827 113.64 7.12494C114.557 8.29161 115.276 9.62494 115.797 11.1249C116.338 12.6041 116.609 14.2708 116.609 16.1249ZM102.734 17.1874C102.734 15.8333 102.317 14.7812 101.484 14.0312C100.672 13.2604 99.6091 12.8749 98.2966 12.8749C97.8591 12.8749 97.4008 12.9166 96.9216 12.9999C96.4633 13.0624 96.0258 13.1458 95.6091 13.2499L95.2341 22.3749C95.5258 22.4166 95.807 22.4374 96.0779 22.4374C96.3487 22.4374 96.63 22.4374 96.9216 22.4374C97.6716 22.4374 98.3904 22.3124 99.0779 22.0624C99.7862 21.8124 100.411 21.4583 100.953 20.9999C101.495 20.5208 101.922 19.9687 102.234 19.3437C102.567 18.6979 102.734 17.9791 102.734 17.1874ZM37.2966 80.1249C37.2966 82.1458 36.9945 83.9374 36.3904 85.4999C35.7862 87.0624 34.9529 88.427 33.8904 89.5937C32.8487 90.7604 31.6195 91.7499 30.2029 92.5624C28.7862 93.3749 27.2654 94.0416 25.6404 94.5624C24.0362 95.0624 22.3695 95.4374 20.6404 95.6874C18.9112 95.9166 17.2133 96.0416 15.5466 96.0624V110.625H0.984131C0.984131 105.854 0.994548 101.104 1.01538 96.3749C1.03621 91.6458 1.06746 86.8749 1.10913 82.0624C1.1508 79.5208 1.16121 76.9791 1.14038 74.4374C1.11955 71.8958 1.17163 69.3333 1.29663 66.7499C3.9633 65.9583 6.62996 65.3645 9.29663 64.9687C11.9633 64.5729 14.7133 64.3749 17.5466 64.3749C19.1508 64.3749 20.755 64.5104 22.3591 64.7812C23.9633 65.0312 25.4945 65.4374 26.9529 65.9999C28.432 66.5624 29.7966 67.2708 31.0466 68.1249C32.3175 68.9583 33.4112 69.9583 34.3279 71.1249C35.2445 72.2916 35.9633 73.6249 36.4841 75.1249C37.0258 76.6041 37.2966 78.2708 37.2966 80.1249ZM23.4216 81.1874C23.4216 79.8333 23.005 78.7812 22.1716 78.0312C21.3591 77.2604 20.2966 76.8749 18.9841 76.8749C18.5466 76.8749 18.0883 76.9166 17.6091 76.9999C17.1508 77.0624 16.7133 77.1458 16.2966 77.2499L15.9216 86.3749C16.2133 86.4166 16.4945 86.4374 16.7654 86.4374C17.0362 86.4374 17.3175 86.4374 17.6091 86.4374C18.3591 86.4374 19.0779 86.3124 19.7654 86.0624C20.4737 85.8124 21.0987 85.4583 21.6404 84.9999C22.182 84.5208 22.6091 83.9687 22.9216 83.3437C23.255 82.6979 23.4216 81.9791 23.4216 81.1874ZM77.6404 88.1249C77.6404 90.0208 77.4216 91.8541 76.9841 93.6249C76.5466 95.3749 75.9112 97.0208 75.0779 98.5624C74.2654 100.104 73.2654 101.521 72.0779 102.812C70.9112 104.083 69.5883 105.177 68.1091 106.094C66.6508 107.01 65.057 107.729 63.3279 108.25C61.5987 108.75 59.7654 109 57.8279 109C55.9529 109 54.1612 108.76 52.4529 108.281C50.7654 107.802 49.182 107.135 47.7029 106.281C46.2237 105.406 44.88 104.365 43.6716 103.156C42.4841 101.927 41.4633 100.573 40.6091 99.0937C39.7758 97.5937 39.1195 95.9895 38.6404 94.2812C38.182 92.5729 37.9529 90.7916 37.9529 88.9374C37.9529 87.1249 38.1716 85.3541 38.6091 83.6249C39.0466 81.8749 39.6716 80.2291 40.4841 78.6874C41.3175 77.1458 42.3175 75.7291 43.4841 74.4374C44.6508 73.1458 45.9529 72.0312 47.3904 71.0937C48.8487 70.1562 50.4216 69.427 52.1091 68.9062C53.7966 68.3854 55.5779 68.1249 57.4529 68.1249C60.4737 68.1249 63.2237 68.5937 65.7029 69.5312C68.2029 70.4687 70.3279 71.8124 72.0779 73.5624C73.8487 75.2916 75.2133 77.3958 76.1716 79.8749C77.1508 82.3333 77.6404 85.0833 77.6404 88.1249ZM63.7654 88.9374C63.7654 88.0416 63.63 87.177 63.3591 86.3437C63.1091 85.4895 62.7341 84.7395 62.2341 84.0937C61.7341 83.427 61.1091 82.8958 60.3591 82.4999C59.63 82.0833 58.7862 81.8749 57.8279 81.8749C56.8487 81.8749 55.9737 82.052 55.2029 82.4062C54.432 82.7604 53.7654 83.2499 53.2029 83.8749C52.6612 84.4791 52.2445 85.1979 51.9529 86.0312C51.6612 86.8437 51.5154 87.7083 51.5154 88.6249C51.5154 89.4999 51.6404 90.3749 51.8904 91.2499C52.1404 92.1249 52.5154 92.9166 53.0154 93.6249C53.5154 94.3333 54.13 94.9062 54.8591 95.3437C55.6091 95.7812 56.4737 95.9999 57.4529 95.9999C58.432 95.9999 59.307 95.8124 60.0779 95.4374C60.8695 95.0416 61.5362 94.5208 62.0779 93.8749C62.6195 93.2083 63.0362 92.4479 63.3279 91.5937C63.6195 90.7395 63.7654 89.8541 63.7654 88.9374ZM116.234 80.1249C116.234 82.1458 115.932 83.9374 115.328 85.4999C114.724 87.0624 113.89 88.427 112.828 89.5937C111.786 90.7604 110.557 91.7499 109.14 92.5624C107.724 93.3749 106.203 94.0416 104.578 94.5624C102.974 95.0624 101.307 95.4374 99.5779 95.6874C97.8487 95.9166 96.1508 96.0416 94.4841 96.0624V110.625H79.9216C79.9216 105.854 79.932 101.104 79.9529 96.3749C79.9737 91.6458 80.005 86.8749 80.0466 82.0624C80.0883 79.5208 80.0987 76.9791 80.0779 74.4374C80.057 71.8958 80.1091 69.3333 80.2341 66.7499C82.9008 65.9583 85.5675 65.3645 88.2341 64.9687C90.9008 64.5729 93.6508 64.3749 96.4841 64.3749C98.0883 64.3749 99.6925 64.5104 101.297 64.7812C102.901 65.0312 104.432 65.4374 105.89 65.9999C107.37 66.5624 108.734 67.2708 109.984 68.1249C111.255 68.9583 112.349 69.9583 113.265 71.1249C114.182 72.2916 114.901 73.6249 115.422 75.1249C115.963 76.6041 116.234 78.2708 116.234 80.1249ZM102.359 81.1874C102.359 79.8333 101.942 78.7812 101.109 78.0312C100.297 77.2604 99.2341 76.8749 97.9216 76.8749C97.4841 76.8749 97.0258 76.9166 96.5466 76.9999C96.0883 77.0624 95.6508 77.1458 95.2341 77.2499L94.8591 86.3749C95.1508 86.4166 95.432 86.4374 95.7029 86.4374C95.9737 86.4374 96.255 86.4374 96.5466 86.4374C97.2966 86.4374 98.0154 86.3124 98.7029 86.0624C99.4112 85.8124 100.036 85.4583 100.578 84.9999C101.12 84.5208 101.547 83.9687 101.859 83.3437C102.192 82.6979 102.359 81.9791 102.359 81.1874ZM133.265 63.7499L130.703 96.6249H119.14L117.953 63.7499H133.265ZM131.203 106.25C131.203 107.167 131.026 108.021 130.672 108.812C130.317 109.604 129.838 110.292 129.234 110.875C128.651 111.479 127.963 111.948 127.172 112.281C126.38 112.635 125.536 112.812 124.64 112.812C123.724 112.812 122.87 112.635 122.078 112.281C121.286 111.948 120.588 111.479 119.984 110.875C119.401 110.292 118.932 109.604 118.578 108.812C118.245 108.021 118.078 107.167 118.078 106.25C118.078 105.354 118.245 104.5 118.578 103.687C118.932 102.875 119.401 102.177 119.984 101.594C120.588 100.99 121.286 100.51 122.078 100.156C122.87 99.802 123.724 99.6249 124.64 99.6249C125.536 99.6249 126.38 99.802 127.172 100.156C127.963 100.51 128.651 100.99 129.234 101.594C129.838 102.177 130.317 102.875 130.672 103.687C131.026 104.5 131.203 105.354 131.203 106.25Z" fill="white"/>
</svg>
